#Comment line ignore any data following # character 
#Hierarchical Translation and Rotation (.htr) file 
[Header]	
#Header keywords are followed by a single value 
FileType HTR		#Single word string
DataType HTRS		#Translation followed by rotation and scale data
FileVersion 1		#integer
NumSegments 64		#integer
NumFrames 3		#integer
DataFrameRate 30		#integer, data frame rate in this file
EulerRotationOrder ZYX
CalibrationUnits mm
RotationUnits Degrees
GlobalAxisofGravity Y
BoneLengthAxis Y
ScaleFactor 1.00
[SegmentNames&Hierarchy]
#CHILD	PARENT
Pinger_Root GLOBAL
Pelvis Pinger_Root
L_Hip Pelvis
R_Hip Pelvis
Rear_Leg01 Pelvis
Spine1 Pelvis
L_Leg01 L_Hip
L_Leg02 L_Leg01
L_Leg03 L_Leg02
L_Foot L_Leg03
L_Toe1_01 L_Foot
L_Toe2_01 L_Foot
L_Toe3_01 L_Foot
planeAlignerLeft L_Foot
L_Toe1_02 L_Toe1_01
L_Toe1_03 L_Toe1_02
L_Toe2_02 L_Toe2_01
L_Toe2_03 L_Toe2_02
L_Toe3_02 L_Toe3_01
L_Toe3_03 L_Toe3_02
planeLockWeightLeft planeAlignerLeft
R_Leg01 R_Hip
R_Leg02 R_Leg01
R_Leg03 R_Leg02
R_Foot R_Leg03
planeAlignerRight R_Foot
R_Toe1_01 R_Foot
R_Toe2_01 R_Foot
R_Toe3_01 R_Foot
planeLockWeightRight planeAlignerRight
R_Toe1_02 R_Toe1_01
R_Toe1_03 R_Toe1_02
R_Toe2_02 R_Toe2_01
R_Toe2_03 R_Toe2_02
R_Toe3_02 R_Toe3_01
R_Toe3_03 R_Toe3_02
Rear_Leg02 Rear_Leg01
Rear_Leg03 Rear_Leg02
Rear_Leg04 Rear_Leg03
Rear_Foot Rear_Leg04
planeAlignerCenter Rear_Foot
Rear_Toe1_01 Rear_Foot
Rear_Toe2_01 Rear_Foot
Rear_Toe3_01 Rear_Foot
planeLockWeightCenter planeAlignerCenter
Rear_Toe1_02 Rear_Toe1_01
Rear_Toe1_03 Rear_Toe1_02
Rear_Toe2_02 Rear_Toe2_01
Rear_Toe2_03 Rear_Toe2_02
Rear_Toe3_02 Rear_Toe3_01
Rear_Toe3_03 Rear_Toe3_02
Back_Bone Spine1
Head Spine1
Motor_Bone Back_Bone
Ping_Mechanism Back_Bone
BN_LookIK Head
bottomMouth Head
L_Mouth01 Head
L_mouthFront Head
mouthGun Head
R_Mouth01 Head
R_mouthFront Head
TopMouth Head
weapon_bone Head
[BasePosition]
#SegmentName Tx, Ty, Tz, Rx, Ry, Rz, BoneLength
Pinger_Root 0.000000 0.000000 0.000000 -90.000000 0.000000 0.000000 10.000000 
Pelvis 0.000000 0.000000 0.000000 0.000000 0.000000 0.000000 10.000000 
L_Hip 0.000000 0.000000 0.000000 0.000000 0.000000 0.000000 10.000000 
R_Hip 0.000000 0.000000 0.000000 0.000000 0.000000 0.000000 10.000000 
Rear_Leg01 0.000000 0.000000 0.000000 0.000000 0.000000 0.000000 10.000000 
Spine1 0.000000 0.000000 0.000000 0.000000 0.000000 0.000000 10.000000 
L_Leg01 0.000000 0.000000 0.000000 0.000000 0.000000 0.000000 10.000000 
L_Leg02 0.000000 0.000000 0.000000 0.000000 0.000000 0.000000 10.000000 
L_Leg03 0.000000 0.000000 0.000000 0.000000 0.000000 0.000000 10.000000 
L_Foot 0.000000 0.000000 0.000000 0.000000 0.000000 0.000000 10.000000 
L_Toe1_01 0.000000 0.000000 0.000000 0.000000 0.000000 0.000000 10.000000 
L_Toe2_01 0.000000 0.000000 0.000000 0.000000 0.000000 0.000000 10.000000 
L_Toe3_01 0.000000 0.000000 0.000000 0.000000 0.000000 0.000000 10.000000 
planeAlignerLeft 0.000000 0.000000 0.000000 0.000000 0.000000 0.000000 10.000000 
L_Toe1_02 0.000000 0.000000 0.000000 0.000000 0.000000 0.000000 10.000000 
L_Toe1_03 0.000000 0.000000 0.000000 0.000000 0.000000 0.000000 10.000000 
L_Toe2_02 0.000000 0.000000 0.000000 0.000000 0.000000 0.000000 10.000000 
L_Toe2_03 0.000000 0.000000 0.000000 0.000000 0.000000 0.000000 10.000000 
L_Toe3_02 0.000000 0.000000 0.000000 0.000000 0.000000 0.000000 10.000000 
L_Toe3_03 0.000000 0.000000 0.000000 0.000000 0.000000 0.000000 10.000000 
planeLockWeightLeft 0.000000 0.000000 0.000000 0.000000 0.000000 0.000000 10.000000 
R_Leg01 0.000000 0.000000 0.000000 0.000000 0.000000 0.000000 10.000000 
R_Leg02 0.000000 0.000000 0.000000 0.000000 0.000000 0.000000 10.000000 
R_Leg03 0.000000 0.000000 0.000000 0.000000 0.000000 0.000000 10.000000 
R_Foot 0.000000 0.000000 0.000000 0.000000 0.000000 0.000000 10.000000 
planeAlignerRight 0.000000 0.000000 0.000000 0.000000 0.000000 0.000000 10.000000 
R_Toe1_01 0.000000 0.000000 0.000000 0.000000 0.000000 0.000000 10.000000 
R_Toe2_01 0.000000 0.000000 0.000000 0.000000 0.000000 0.000000 10.000000 
R_Toe3_01 0.000000 0.000000 0.000000 0.000000 0.000000 0.000000 10.000000 
planeLockWeightRight 0.000000 0.000000 0.000000 0.000000 0.000000 0.000000 10.000000 
R_Toe1_02 0.000000 0.000000 0.000000 0.000000 0.000000 0.000000 10.000000 
R_Toe1_03 0.000000 0.000000 0.000000 0.000000 0.000000 0.000000 10.000000 
R_Toe2_02 0.000000 0.000000 0.000000 0.000000 0.000000 0.000000 10.000000 
R_Toe2_03 0.000000 0.000000 0.000000 0.000000 0.000000 0.000000 10.000000 
R_Toe3_02 0.000000 0.000000 0.000000 0.000000 0.000000 0.000000 10.000000 
R_Toe3_03 0.000000 0.000000 0.000000 0.000000 0.000000 0.000000 10.000000 
Rear_Leg02 0.000000 0.000000 0.000000 0.000000 0.000000 0.000000 10.000000 
Rear_Leg03 0.000000 0.000000 0.000000 0.000000 0.000000 0.000000 10.000000 
Rear_Leg04 0.000000 0.000000 0.000000 0.000000 0.000000 0.000000 10.000000 
Rear_Foot 0.000000 0.000000 0.000000 0.000000 0.000000 0.000000 10.000000 
planeAlignerCenter 0.000000 0.000000 0.000000 0.000000 0.000000 0.000000 10.000000 
Rear_Toe1_01 0.000000 0.000000 0.000000 0.000000 0.000000 0.000000 10.000000 
Rear_Toe2_01 0.000000 0.000000 0.000000 0.000000 0.000000 0.000000 10.000000 
Rear_Toe3_01 0.000000 0.000000 0.000000 0.000000 0.000000 0.000000 10.000000 
planeLockWeightCenter 0.000000 0.000000 0.000000 0.000000 0.000000 0.000000 10.000000 
Rear_Toe1_02 0.000000 0.000000 0.000000 0.000000 0.000000 0.000000 10.000000 
Rear_Toe1_03 0.000000 0.000000 0.000000 0.000000 0.000000 0.000000 10.000000 
Rear_Toe2_02 0.000000 0.000000 0.000000 0.000000 0.000000 0.000000 10.000000 
Rear_Toe2_03 0.000000 0.000000 0.000000 0.000000 0.000000 0.000000 10.000000 
Rear_Toe3_02 0.000000 0.000000 0.000000 0.000000 0.000000 0.000000 10.000000 
Rear_Toe3_03 0.000000 0.000000 0.000000 0.000000 0.000000 0.000000 10.000000 
Back_Bone 0.000000 0.000000 0.000000 0.000000 0.000000 0.000000 10.000000 
Head 0.000000 0.000000 0.000000 0.000000 0.000000 0.000000 10.000000 
Motor_Bone 0.000000 0.000000 0.000000 0.000000 0.000000 0.000000 10.000000 
Ping_Mechanism 0.000000 0.000000 0.000000 0.000000 0.000000 0.000000 10.000000 
BN_LookIK 0.000000 0.000000 0.000000 0.000000 0.000000 0.000000 10.000000 
bottomMouth 0.000000 0.000000 0.000000 0.000000 0.000000 0.000000 10.000000 
L_Mouth01 0.000000 0.000000 0.000000 0.000000 0.000000 0.000000 10.000000 
L_mouthFront 0.000000 0.000000 0.000000 0.000000 0.000000 0.000000 10.000000 
mouthGun 0.000000 0.000000 0.000000 0.000000 0.000000 0.000000 10.000000 
R_Mouth01 0.000000 0.000000 0.000000 0.000000 0.000000 0.000000 10.000000 
R_mouthFront 0.000000 0.000000 0.000000 0.000000 0.000000 0.000000 10.000000 
TopMouth 0.000000 0.000000 0.000000 0.000000 0.000000 0.000000 10.000000 
weapon_bone 0.000000 0.000000 0.000000 0.000000 0.000000 0.000000 10.000000 
#Beginning of Data. Separated by tabs
#Fr	Tx	Ty	Tz	Rx	Ry	Rz	SF
[Pinger_Root]
351 0.000000 -3765.518066 0.000000 -0.000075 -0.000000 -0.000020 3765.518311
352 0.000000 -3780.008789 0.000000 -0.000075 -0.000000 -0.000020 3780.008789
353 0.000000 -3794.224609 0.000000 -0.000075 -0.000000 -0.000020 3794.224365
[Pelvis]
351 1412.364746 19002.177734 7059.166504 179.935333 -86.138519 167.219574 20320.171875
352 1411.862305 19016.755859 7059.126465 179.830521 -86.130219 167.324661 20333.755859
353 1411.486328 19031.050781 7059.092285 179.726151 -86.121819 167.429321 20347.087891
[L_Hip]
351 5.766392 125.831482 872.656799 160.158691 -45.484905 122.312202 881.701050
352 5.766392 125.831482 872.656799 160.158691 -45.484905 122.312202 881.701050
353 5.766392 125.831482 872.656799 160.158691 -45.484905 122.312202 881.701050
[R_Hip]
351 5.765438 125.836372 -872.654907 38.087841 49.812687 125.703735 881.699829
352 5.765438 125.836372 -872.654907 38.087841 49.812698 125.703735 881.699829
353 5.765438 125.836372 -872.654907 38.087841 49.812687 125.703735 881.699829
[Rear_Leg01]
351 -192.298416 -925.602966 -0.001907 169.549347 1.641787 -159.448624 945.367432
352 -192.298416 -925.602966 -0.001907 169.547699 1.638871 -159.442902 945.367432
353 -192.298416 -925.602966 -0.001907 169.546082 1.635956 -159.437180 945.367432
[Spine1]
351 290.604584 5.007505 0.000477 7.454660 0.006284 19.561768 290.647736
352 290.604584 5.007505 0.000477 7.457896 0.014627 19.567541 290.647736
353 290.604584 5.007505 0.000477 7.461133 0.022970 19.573324 290.647736
[L_Leg01]
351 761.932007 -0.002384 -0.069261 23.055498 -15.756902 -8.291424 761.932068
352 761.932007 -0.002384 -0.069261 23.069906 -15.745200 -8.304439 761.932068
353 761.932007 -0.002384 -0.069261 23.084312 -15.733495 -8.317450 761.932068
[L_Leg02]
351 1441.140503 -0.000954 -0.000715 2.793736 -0.182209 -130.484604 1441.140503
352 1441.140503 -0.000954 -0.000715 2.793880 -0.181964 -130.481476 1441.140503
353 1441.140503 -0.000954 -0.000715 2.794023 -0.181720 -130.478363 1441.140503
[L_Leg03]
351 1686.963989 -0.000715 -0.000954 -0.029903 0.014803 118.458717 1686.963989
352 1686.963989 -0.000715 -0.000954 -0.029903 0.014804 118.465080 1686.963989
353 1686.963989 -0.000715 -0.000954 -0.029902 0.014806 118.471451 1686.963989
[L_Foot]
351 3041.570068 -30.715107 11.297464 2.437355 13.029360 55.950832 3041.746094
352 3041.570068 -30.715107 11.297464 2.448837 13.028105 55.961918 3041.746094
353 3041.570068 -30.715107 11.297464 2.460302 13.026844 55.972969 3041.746094
[L_Toe1_01]
351 -188.216690 -224.732346 -21.137953 93.720062 -6.499861 -171.880478 293.899567
352 -188.216690 -224.732346 -21.137953 93.720284 -6.524039 -171.886230 293.899567
353 -188.216690 -224.732346 -21.137953 93.720520 -6.548219 -171.891968 293.899567
[L_Toe2_01]
351 200.746536 -219.926590 148.838394 -90.068451 -25.763056 -52.971054 332.896027
352 200.746536 -219.926590 148.838394 -90.067581 -25.778269 -52.962662 332.896027
353 200.746536 -219.926590 148.838394 -90.066734 -25.793486 -52.954273 332.896027
[L_Toe3_01]
351 188.832520 -219.859131 -191.078659 -100.026489 14.053199 -68.299385 347.140900
352 188.832520 -219.859131 -191.078659 -100.019936 14.047216 -68.281418 347.140900
353 188.832520 -219.859131 -191.078659 -100.013390 14.041239 -68.263451 347.140900
[planeAlignerLeft]
351 0.812531 -811.448792 -0.314951 0.000000 -90.000000 -90.001900 811.449280
352 0.812531 -811.448792 -0.314951 0.000000 -90.000000 -90.001900 811.449280
353 0.812531 -811.448792 -0.314951 0.000000 -90.000000 -90.001900 811.449280
[L_Toe1_02]
351 413.761139 0.000477 0.000000 0.001384 -25.946507 0.001384 413.761139
352 413.761139 0.000477 0.000000 0.001384 -25.946459 0.001384 413.761139
353 413.761139 0.000477 0.000000 0.001384 -25.946405 0.001384 413.761139
[L_Toe1_03]
351 464.317322 0.000358 -0.000089 0.003821 54.222511 0.003821 464.317322
352 464.317322 0.000358 -0.000089 0.003819 54.206276 0.003819 464.317322
353 464.317322 0.000358 -0.000089 0.003817 54.190048 0.003817 464.317322
[L_Toe2_02]
351 342.235809 -0.000477 0.000238 0.001188 -72.199516 0.001188 342.235809
352 342.235809 -0.000477 0.000238 0.001188 -72.195595 0.001188 342.235809
353 342.235809 -0.000477 0.000238 0.001188 -72.191605 0.001188 342.235809
[L_Toe2_03]
351 420.210846 -0.000715 0.000000 0.025880 84.801712 0.025880 420.210846
352 420.210846 -0.000715 0.000000 0.025978 84.821388 0.025978 420.210846
353 420.210846 -0.000715 0.000000 0.026077 84.840866 0.026077 420.210846
[L_Toe3_02]
351 329.270111 0.000954 0.000000 0.001178 -80.084991 0.001178 329.270111
352 329.270111 0.000954 0.000000 0.001178 -80.106857 0.001178 329.270111
353 329.270111 0.000954 0.000000 0.001178 -80.128662 0.001178 329.270111
[L_Toe3_03]
351 439.137451 -0.001907 0.000954 -179.994919 80.371590 -179.991394 439.137451
352 439.137451 -0.001907 0.000954 -179.994965 80.298767 -179.991455 439.137451
353 439.137451 -0.001907 0.000954 -179.995010 80.226074 -179.991501 439.137451
[planeLockWeightLeft]
351 -0.000954 0.000238 -0.000305 -0.011826 -0.004376 0.005620 0.001029
352 -0.000954 0.000238 -0.000305 -0.011826 -0.004376 0.005620 0.001029
353 -0.000954 0.000238 -0.000305 -0.011826 -0.004376 0.005620 0.001029
[R_Leg01]
351 761.455627 -0.001907 -0.000358 122.733627 -13.607519 32.582348 761.455688
352 761.455627 -0.001907 -0.000358 122.732719 -13.597708 32.594009 761.455688
353 761.455627 -0.001907 -0.000358 122.731834 -13.587898 32.605667 761.455688
[R_Leg02]
351 1441.140625 0.000000 -0.000238 -0.592899 -0.077332 -124.971687 1441.140625
352 1441.140625 0.000000 -0.000238 -0.591948 -0.076730 -124.945282 1441.140625
353 1441.140625 0.000000 -0.000238 -0.590995 -0.076129 -124.918861 1441.140625
[R_Leg03]
351 1686.963989 0.000954 0.001431 0.064947 -0.033156 127.547119 1686.963989
352 1686.963989 0.000954 0.001431 0.064830 -0.033102 127.526093 1686.963989
353 1686.963989 0.000954 0.001431 0.064714 -0.033049 127.505058 1686.963989
[R_Foot]
351 3041.560059 -30.531288 -11.204481 -0.230844 -23.005316 58.714855 3041.734131
352 3041.560059 -30.531288 -11.204481 -0.223701 -23.005688 58.711720 3041.734131
353 3041.560059 -30.531288 -11.204481 -0.216560 -23.006054 58.708584 3041.734131
[planeAlignerRight]
351 -0.635147 -812.270569 -0.364304 0.000000 -89.960434 -90.005180 812.270874
352 -0.635147 -812.270569 -0.364304 0.000000 -89.960434 -90.005180 812.270874
353 -0.635147 -812.270569 -0.364304 0.000000 -89.960434 -90.005180 812.270874
[R_Toe1_01]
351 -188.383347 -224.864899 21.052242 76.763489 -0.278834 -173.670380 294.101532
352 -188.383347 -224.864899 21.052242 76.763405 -0.276228 -173.688843 294.101532
353 -188.383347 -224.864899 21.052242 76.763321 -0.273621 -173.707321 294.101532
[R_Toe2_01]
351 200.637817 -220.002121 -148.787384 -91.523590 33.307823 -58.533745 332.857574
352 200.637817 -220.002121 -148.787384 -91.519073 33.316639 -58.520481 332.857574
353 200.637817 -220.002121 -148.787384 -91.514534 33.325436 -58.507183 332.857574
[R_Toe3_01]
351 188.606735 -220.092957 191.126343 -73.312233 -8.451915 -72.916351 347.192566
352 188.606735 -220.092957 191.126343 -73.314041 -8.451875 -72.899200 347.192566
353 188.606735 -220.092957 191.126343 -73.315849 -8.451836 -72.882027 347.192566
[planeLockWeightRight]
351 -0.000477 0.000000 0.000000 -0.011823 -0.004379 -0.000027 0.000477
352 -0.000477 0.000000 0.000000 -0.011823 -0.004379 -0.000027 0.000477
353 -0.000477 0.000000 0.000000 -0.011823 -0.004379 -0.000027 0.000477
[R_Toe1_02]
351 413.762085 0.000477 -0.000119 0.001395 -24.550722 0.001395 413.762085
352 413.762085 0.000477 -0.000119 0.001395 -24.548704 0.001395 413.762085
353 413.762085 0.000477 -0.000119 0.001395 -24.546680 0.001395 413.762085
[R_Toe1_03]
351 464.317810 0.000000 0.001088 0.006934 70.510490 0.006934 464.317810
352 464.317810 0.000000 0.001088 0.006940 70.528587 0.006940 464.317810
353 464.317810 0.000000 0.001088 0.006947 70.546677 0.006947 464.317810
[R_Toe2_02]
351 342.234741 -0.000954 0.000238 0.001197 -67.508286 0.001197 342.234741
352 342.234741 -0.000954 0.000238 0.001197 -67.512527 0.001197 342.234741
353 342.234741 -0.000954 0.000238 0.001197 -67.516769 0.001197 342.234741
[R_Toe2_03]
351 420.210846 0.000715 -0.000268 0.008526 74.176193 0.008526 420.210846
352 420.210846 0.000715 -0.000268 0.008532 74.187424 0.008532 420.210846
353 420.210846 0.000715 -0.000268 0.008538 74.198685 0.008538 420.210846
[R_Toe3_02]
351 329.270355 -0.000477 -0.000954 0.001183 -75.211990 0.001183 329.270355
352 329.270355 -0.000477 -0.000954 0.001183 -75.225754 0.001183 329.270355
353 329.270355 -0.000477 -0.000954 0.001183 -75.239601 0.001183 329.270355
[R_Toe3_03]
351 439.137939 0.000238 0.001431 -0.015253 85.120987 -0.011753 439.137939
352 439.137939 0.000238 0.001431 -0.015364 85.160782 -0.011864 439.137939
353 439.137939 0.000238 0.001431 -0.015477 85.200531 -0.011977 439.137939
[Rear_Leg02]
351 1162.777710 -0.029802 0.005960 1.174155 -5.923184 -123.512375 1162.777710
352 1162.777710 -0.029802 0.005960 1.174135 -5.923188 -123.512009 1162.777710
353 1162.777710 -0.029802 0.005960 1.174116 -5.923192 -123.511627 1162.777710
[Rear_Leg03]
351 607.192505 -0.013351 -0.073195 0.006475 -0.002111 64.331154 607.192505
352 607.192505 -0.013351 -0.073195 0.006475 -0.002111 64.330421 607.192505
353 607.192505 -0.013351 -0.073195 0.006475 -0.002111 64.329697 607.192505
[Rear_Leg04]
351 995.874512 -0.020504 -0.011921 -0.040535 -0.015113 58.378841 995.874573
352 995.874512 -0.020504 -0.011921 -0.040535 -0.015113 58.378345 995.874573
353 995.874512 -0.020504 -0.011921 -0.040535 -0.015113 58.377838 995.874573
[Rear_Foot]
351 3096.176270 -0.067472 -0.041425 -134.641785 82.966339 58.120888 3096.176270
352 3096.176270 -0.067472 -0.041425 -134.615616 82.969681 58.148453 3096.176270
353 3096.176270 -0.067472 -0.041425 -134.589279 82.973122 58.176144 3096.176270
[planeAlignerCenter]
351 0.350077 0.966311 -838.790894 0.000009 0.000003 -179.999985 838.791565
352 0.350077 0.966311 -838.790894 0.000009 0.000003 -179.999985 838.791565
353 0.350077 0.966311 -838.790894 0.000009 0.000003 -179.999985 838.791565
[Rear_Toe1_01]
351 0.653352 83.966492 -371.173737 0.288293 41.720249 90.411095 380.553192
352 0.653352 83.966492 -371.173737 0.288301 41.717941 90.411072 380.553192
353 0.653352 83.966492 -371.173737 0.288300 41.715630 90.411041 380.553192
[Rear_Toe2_01]
351 178.200760 -294.826019 -362.060547 -7.212135 34.279678 -66.261368 499.765686
352 178.200760 -294.826019 -362.060547 -7.212302 34.278374 -66.261284 499.765686
353 178.200760 -294.826019 -362.060547 -7.212466 34.277073 -66.261215 499.765686
[Rear_Toe3_01]
351 -153.359680 -308.780914 -362.060852 3.294219 33.403427 -112.550888 499.952881
352 -153.359680 -308.780914 -362.060852 3.294278 33.402061 -112.551010 499.952881
353 -153.359680 -308.780914 -362.060852 3.294334 33.400700 -112.551132 499.952881
[planeLockWeightCenter]
351 -0.000062 0.000238 0.000000 -0.011814 -0.004373 -0.000015 0.000246
352 -0.000062 0.000238 0.000000 -0.011814 -0.004373 -0.000015 0.000246
353 -0.000062 0.000238 0.000000 -0.011814 -0.004373 -0.000015 0.000246
[Rear_Toe1_02]
351 379.707825 0.194073 0.000477 -0.000245 -31.714167 0.006936 379.707855
352 379.707825 0.194073 0.000477 -0.000245 -31.714451 0.006936 379.707855
353 379.707825 0.194073 0.000477 -0.000245 -31.714714 0.006936 379.707855
[Rear_Toe1_03]
351 500.129700 0.165701 0.000119 -0.000064 52.287159 0.007326 500.129761
352 500.129700 0.165701 0.000119 -0.000063 52.292450 0.007327 500.129761
353 500.129700 0.165701 0.000119 -0.000063 52.297729 0.007327 500.129761
[Rear_Toe2_02]
351 340.494507 0.000238 -0.000954 0.001192 -70.069122 0.001192 340.494507
352 340.494507 0.000238 -0.000954 0.001192 -70.070854 0.001192 340.494507
353 340.494507 0.000238 -0.000954 0.001192 -70.072594 0.001192 340.494507
[Rear_Toe2_03]
351 433.103577 0.000000 0.000238 0.006780 70.062447 0.006780 433.103546
352 433.103577 0.000000 0.000238 0.006781 70.065445 0.006781 433.103546
353 433.103577 0.000000 0.000238 0.006782 70.068451 0.006782 433.103546
[Rear_Toe3_02]
351 340.494141 -0.000358 -0.000477 0.008356 -67.450096 -0.009528 340.494171
352 340.494141 -0.000358 -0.000477 0.008357 -67.451706 -0.009529 340.494171
353 340.494141 -0.000358 -0.000477 0.008357 -67.453285 -0.009529 340.494171
[Rear_Toe3_03]
351 433.103577 0.001431 -0.000238 -0.001003 66.219238 -0.004576 433.103546
352 433.103577 0.001431 -0.000238 -0.001003 66.222336 -0.004576 433.103546
353 433.103577 0.001431 -0.000238 -0.001003 66.225433 -0.004577 433.103546
[Back_Bone]
351 1312.175781 -701.934692 0.000954 2.775817 -1.441584 -85.681267 1488.125488
352 1312.175781 -701.934692 0.000954 2.775638 -1.441391 -85.681267 1488.125488
353 1312.175781 -701.934692 0.000954 2.775457 -1.441197 -85.681252 1488.125488
[Head]
351 1406.159424 809.709290 0.001431 -1.615531 2.675528 7.767264 1622.625488
352 1406.159424 809.709290 0.001431 -1.615414 2.675292 7.767270 1622.625488
353 1406.159424 809.709290 0.001431 -1.615296 2.675056 7.767274 1622.625488
[Motor_Bone]
351 1158.364380 -417.834747 0.000477 1.766832 -1.204729 -110.141914 1231.419434
352 1158.364380 -417.834747 0.000477 1.792239 -1.207147 -110.232239 1231.419434
353 1158.364380 -417.834747 0.000477 1.817649 -1.209525 -110.322556 1231.419434
[Ping_Mechanism]
351 1232.616089 -441.364746 -3.573703 0.000103 -0.000053 82.120995 1309.258545
352 1232.601196 -441.359436 -3.628526 0.000103 -0.000053 82.120995 1309.242798
353 1232.586426 -441.354095 -3.683346 0.000103 -0.000053 82.120995 1309.227295
[BN_LookIK]
351 193.241119 1380.371704 -0.002861 0.000000 89.965736 -31.038179 1393.832153
352 193.241119 1380.371704 -0.002861 0.000000 89.965736 -31.038179 1393.832153
353 193.241119 1380.371704 -0.002861 0.000000 89.965736 -31.038179 1393.832153
[bottomMouth]
351 -435.092926 615.759399 -0.000954 -0.000022 0.000016 73.527184 753.966492
352 -435.092926 615.759399 -0.000954 -0.000022 0.000016 73.527184 753.966492
353 -435.092926 615.759399 -0.000954 -0.000022 0.000016 73.527184 753.966492
[L_Mouth01]
351 554.440979 7.658243 838.222046 150.204178 23.759130 109.605339 1005.027161
352 554.440979 7.658243 838.222046 150.204178 23.759130 109.605339 1005.027161
353 554.440979 7.658243 838.222046 150.204178 23.759130 109.605339 1005.027161
[L_mouthFront]
351 551.629089 934.514771 339.150421 0.000081 2.804060 79.119301 1136.941284
352 551.629089 934.514771 339.150421 0.000081 2.804060 79.119301 1136.941284
353 551.629089 934.514771 339.150421 0.000081 2.804060 79.119301 1136.941284
[mouthGun]
351 55.332661 1627.420898 0.000000 0.000023 0.000009 -11.038128 1628.361328
352 55.332661 1627.420898 0.000000 0.000023 0.000009 -11.038128 1628.361328
353 55.332661 1627.420898 0.000000 0.000023 0.000009 -11.038128 1628.361328
[R_Mouth01]
351 554.442383 7.659197 -838.223938 29.795891 -23.759109 109.605331 1005.029541
352 554.442383 7.659197 -838.223938 29.795891 -23.759109 109.605331 1005.029541
353 554.442383 7.659197 -838.223938 29.795891 -23.759109 109.605331 1005.029541
[R_mouthFront]
351 551.629089 934.514282 -339.151367 0.000029 -2.803930 79.119133 1136.941162
352 551.629089 934.514282 -339.151367 0.000029 -2.803930 79.119133 1136.941162
353 551.629089 934.514282 -339.151367 0.000029 -2.803930 79.119133 1136.941162
[TopMouth]
351 461.269867 -56.106091 -0.008583 -0.000059 -0.000268 92.025169 464.669525
352 461.269867 -56.106091 -0.008583 -0.000059 -0.000268 92.025169 464.669525
353 461.269867 -56.106091 -0.008583 -0.000059 -0.000268 92.025169 464.669525
[weapon_bone]
351 -987.239868 1448.372803 0.001431 0.000000 89.965736 -31.038221 1752.833740
352 -987.239868 1448.372803 0.001431 0.000000 89.965736 -31.038221 1752.833740
353 -987.239868 1448.372803 0.001431 0.000000 89.965736 -31.038221 1752.833740
